<?xml version="1.0" encoding="utf-8"?>
<!-- Generator: Adobe Illustrator 25.4.1, SVG Export Plug-In . SVG Version: 6.00 Build 0)  -->
<svg version="1.1" id="图层_1" xmlns="http://www.w3.org/2000/svg" xmlns:xlink="http://www.w3.org/1999/xlink" x="0px" y="0px"
	 viewBox="0 0 186 29" style="enable-background:new 0 0 186 29;" xml:space="preserve">
<style type="text/css">
	.st0{fill:#0E1129;}
</style>
<path class="st0" d="M121.9,28.5c-0.9,0-1.6-0.3-2.2-0.9c-0.6-0.6-0.9-1.4-0.9-2.2c0-0.9,0.3-1.6,0.9-2.2c0.6-0.6,1.4-0.9,2.2-0.9
	c0.9,0,1.6,0.3,2.2,0.9c0.6,0.6,0.9,1.4,0.9,2.2c0,0.9-0.3,1.6-0.9,2.2C123.5,28.2,122.8,28.5,121.9,28.5z"/>
<path class="st0" d="M25.7,28.3l0.1-20.2l-5.5,20.2h-6.5L8.2,8.1l0,20.2h-8.3V0.5h12.6L17.1,18l4.4-17.5h12.6v27.8H25.7z"/>
<path class="st0" d="M51.9,28.3v-3c-0.3,0.6-0.5,1.1-1.4,1.8c-0.9,0.8-2.5,1.7-5.4,1.7c-0.7,0-3.4,0-5.4-1.7c-0.6-0.5-1.5-1.5-2-3.3
	c-0.2-0.8-0.4-1.7-0.4-3.5V7.9h8.1V19c0,0.9-0.1,3.3,3,3.3c0.8,0,1.6-0.2,2.1-0.7c0.9-1,0.8-2.7,0.8-2.9V7.9h8.1v20.4H51.9z"/>
<path class="st0" d="M81.1,24.8c-2.3,4.2-7.8,4.3-8.9,4.3c-3,0-6.1-0.9-8.7-2.5c-0.8-0.5-1.5-1.1-2.2-1.6l4.6-4.1
	c0.4,0.4,0.7,0.7,1.1,1c0.7,0.5,2.7,1.7,5.2,1.7c0.2,0,0.8,0,1.3-0.2c0.6-0.3,0.8-0.8,0.8-1.1c0-0.2-0.1-0.4-0.2-0.5
	c-0.5-0.8-1.4-0.7-3-1c-0.5-0.1-2.4-0.5-4-1c-1.9-0.6-3.3-1.4-4.3-3.3c-0.4-0.8-0.6-1.6-0.6-2.4c0-1.8,0.8-3.1,1.2-3.6
	C64.8,8.7,67.1,7,71.7,7c2.4,0,5.5,0.5,7.8,1.7c0.7,0.4,1.3,0.8,2,1.3L77,14c-0.6-0.4-2.8-2-5.2-2c-0.2,0-0.7,0-1.1,0.2
	c-0.5,0.2-0.6,0.7-0.6,0.9c0,0.5,0.4,0.7,0.6,0.8c0.4,0.2,1.1,0.4,2.1,0.6c3,0.7,4.7,1,6,1.7c1,0.5,3.2,2.1,3.2,5.3
	C82,22.6,81.7,23.7,81.1,24.8z"/>
<path class="st0" d="M84.4,5.9V0.5h8.1v5.4H84.4z M84.4,28.3V7.9h8.1v20.4H84.4z"/>
<path class="st0" d="M115,25c-1.2,1.6-4.1,4.1-9.2,4.1c-2.3,0-3.7-0.5-4.6-0.9c-5.8-2.4-6.2-8.4-6.2-10.2c0-0.7,0.1-2.3,0.7-4.1
	c2.2-6.6,8.7-6.9,10.7-6.9c3.6,0,5.7,1.1,7,2c0.3,0.2,1.2,0.9,2,1.8c0.4,0.6,0.7,0.9,1,1.5l-6.1,3.5c-0.2-0.5-0.3-0.9-0.4-1.1
	c-0.3-0.6-1.1-2-3.1-2c-0.9,0-1.5,0.3-1.7,0.5c-2,1.3-1.9,4.7-1.9,5c0,0.2,0,2.3,0.9,3.5c0.2,0.2,0.5,0.6,1.1,0.8
	c0.2,0.1,0.7,0.3,1.5,0.3c2.6,0,3.4-3,3.6-3.5l6.2,3.4C115.7,23.9,115.4,24.6,115,25z"/>
</svg>
