<?xml version="1.0" encoding="UTF-8"?>
<svg id="Layer_1" data-name="Layer 1" xmlns="http://www.w3.org/2000/svg" viewBox="0 0 160.06 160.06">
  <defs>
    <style>
      .cls-1 {
        fill: #fa6697;
      }

      .cls-2 {
        fill: #fff;
      }
    </style>
  </defs>
  <path class="cls-1" d="M152.36,150.23l-4.41-27.88c8.1-12.98,12.61-28.43,12.07-44.98C158.64,35.03,123.92,.81,81.57,.01,36.23-.84-.71,36.01,.01,81.32c.69,43.5,36.62,78.79,80.12,78.74,10.96,0,21.8-2.26,31.84-6.65l34.45,3.15c3.58,.33,6.5-2.79,5.94-6.33h0Z"/>
  <path class="cls-2" d="M117.12,51.26c-10.23-10.23-26.77-10.29-37.08-.21-10.32-10.08-26.85-10.02-37.08,.21-10.3,10.3-10.3,27,0,37.3l28.51,28.51c4.74,4.74,12.41,4.74,17.15,0l.03-.03s.01-.01,.02-.01l28.46-28.46c10.29-10.31,10.29-27.01-.01-37.31h0Z"/>
</svg>