<?xml version="1.0" encoding="utf-8"?>
<!-- Generator: Adobe Illustrator 25.3.1, SVG Export Plug-In . SVG Version: 6.00 Build 0)  -->
<svg version="1.1" id="Layer_1" xmlns="http://www.w3.org/2000/svg" xmlns:xlink="http://www.w3.org/1999/xlink" x="0px" y="0px"
	 viewBox="0 0 90 16" style="enable-background:new 0 0 90 16;" xml:space="preserve">
<g>
	<path d="M0.1,2.3H4c2.1,0,3.7,1.4,3.7,3.7c0,0.7-0.2,1.4-0.6,2h1.3v6.2H6.6V9.7H2v4.5H0.1V2.3z M5.9,6c0-1.1-0.9-1.9-2-1.9H2V8h1.9
		C5,8,5.9,7.2,5.9,6z"/>
	<path d="M15.4,2.2l5.5,12.1H19L18,12h-5.2l-1,2.2H9.9L15.4,2.2z M17.2,10.2l-1.8-4.1l-1.8,4.1H17.2z"/>
	<path d="M22.7,2.3h4c2.2,0,3.9,1.7,3.9,3.7c0,2.2-1.7,3.8-3.9,3.8h-2.1v4.3h-1.9V2.3z M28.6,6.1c0-1.2-0.9-2-2.1-2h-2v4.1h2
		C27.8,8.2,28.6,7.3,28.6,6.1z"/>
	<path d="M40.3,9h-5.8v5.2h-1.8V2.3h1.8v4.9h5.8V2.3h1.8v11.9h-1.8V9z"/>
	<path d="M49.4,2.2l5.5,12.1H53L52,12h-5.2l-1,2.2h-1.9L49.4,2.2z M51.2,10.2l-1.8-4.1l-1.8,4.1H51.2z"/>
	<path d="M56.7,2.3h6.5V4h-4.7v3.3h4.7V9h-4.7v3.5h4.7v1.7h-6.5V2.3z"/>
	<path d="M65.9,2.3h1.9v10.1h4.9v1.8h-6.7V2.3z"/>
	<path d="M74.8,2.3h1.9v10.1h4.9v1.8h-6.7V2.3z"/>
	<path d="M83.7,2.3h6.5V4h-4.7v3.3h4.7V9h-4.7v3.5h4.7v1.7h-6.5V2.3z"/>
</g>
</svg>
